<?xml version="1.0" standalone="no"?>
<!DOCTYPE svg PUBLIC "-//W3C//DTD SVG 20010904//EN"
 "http://www.w3.org/TR/2001/REC-SVG-20010904/DTD/svg10.dtd">
<svg version="1.0" xmlns="http://www.w3.org/2000/svg"
 width="1951.000000pt" height="1951.000000pt" viewBox="0 0 1951.000000 1951.000000"
 preserveAspectRatio="xMidYMid meet">

<g transform="translate(0.000000,1951.000000) scale(0.100000,-0.100000)"
fill="#000000" stroke="none">
<path d="M6883 15571 c-634 -119 -1154 -219 -1157 -222 -8 -7 89 -235 169
-394 622 -1251 1833 -2130 3210 -2330 197 -29 441 -48 557 -43 l87 3 -850
1600 c-467 880 -852 1601 -856 1601 -5 1 -526 -96 -1160 -215z"/>
<path d="M11446 15767 c-27 -44 -1686 -3176 -1686 -3183 0 -11 349 3 495 21
525 62 1030 216 1482 450 412 214 722 442 1064 784 281 281 459 507 647 821
145 241 348 670 326 689 -5 4 -522 103 -1149 220 -627 117 -1146 214 -1152
216 -7 3 -19 -6 -27 -18z"/>
<path d="M4150 13774 c0 -4 -97 -526 -216 -1161 -119 -635 -214 -1156 -212
-1157 1 -2 722 -385 1601 -851 879 -467 1594 -852 1590 -856 -5 -5 -722 -387
-1593 -850 -872 -462 -1589 -844 -1593 -849 -6 -6 418 -2317 427 -2327 6 -7
197 76 355 153 467 226 828 488 1206 875 922 943 1352 2259 1174 3591 -185
1389 -1046 2606 -2294 3244 -169 87 -409 194 -434 194 -6 0 -11 -3 -11 -6z"/>
<path d="M15220 13734 c-272 -115 -577 -283 -801 -440 -395 -278 -796 -678
-1072 -1072 -463 -660 -737 -1477 -764 -2279 -3 -101 -3 -183 1 -183 11 0
3179 1682 3192 1694 17 16 -417 2320 -437 2323 -8 1 -61 -18 -119 -43z"/>
<path d="M12580 9638 c1 -488 129 -1088 341 -1585 435 -1023 1279 -1859 2304
-2282 107 -45 121 -48 127 -33 4 9 102 526 218 1147 116 622 213 1137 216
1146 3 13 -326 191 -1518 825 -838 444 -1560 828 -1605 852 l-83 44 0 -114z"/>
<path d="M9515 6923 c-33 -2 -128 -10 -212 -18 -524 -52 -1013 -195 -1493
-435 -274 -137 -516 -292 -761 -487 -174 -139 -524 -489 -663 -663 -116 -146
-302 -419 -384 -566 -94 -165 -291 -590 -279 -600 10 -9 2322 -433 2327 -427
5 4 387 721 849 1593 463 871 845 1588 849 1592 5 5 390 -710 857 -1589 466
-879 849 -1600 851 -1601 3 -5 2317 428 2323 434 9 9 -78 208 -179 409 -121
241 -242 438 -385 630 -875 1167 -2237 1803 -3700 1728z"/>
</g>
</svg>
